<?xml version="1.0" standalone="no"?>
<!DOCTYPE svg PUBLIC "-//W3C//DTD SVG 1.0//EN" "http://www.w3.org/TR/2001/REC-SVG-20010904/DTD/svg10.dtd">
<svg xmlns="http://www.w3.org/2000/svg" xmlns:xlink="http://www.w3.org/1999/xlink" id="body_1" width="80" height="80">

<g transform="matrix(0.20000002 0 0 0.20000002 0 0)">
	<g>
	</g>
    <path d="M67.2 13.609C 64.054 13.952 59.836 14.701 58.2 15.207C 51.707 17.215 51.178 17.422 45.8 20.075C 33.163 26.309 26.258 38.915 24.805 58.4C 24.251 65.82 24.252 316.792 24.805 323.842C 26.971 351.438 47.259 372.238 74.884 375.186C 80.187 375.751 337.462 375.761 343.258 375.196C 359.687 373.594 372.303 367.279 377.975 357.818C 382.904 349.596 385.519 341.789 386.422 332.6C 386.845 328.298 386.821 72.32 386.397 68C 384.041 43.973 367.193 23.402 343.8 15.99C 335.555 13.378 333.372 13.261 292.5 13.228L292.5 13.228L256.4 13.2L256.4 88.538C 256.4 172.261 256.598 165.962 253.838 169.945C 250.044 175.42 252.163 175.201 203.027 175.196C 154.335 175.191 157.061 175.435 153.01 170.703C 149.723 166.863 150 174.392 150 88.985L150 88.985L150 13.2L109.9 13.263C 87.845 13.298 68.63 13.453 67.2 13.609M91 243.308C 93.935 244.95 94.4 246.55 94.4 255C 94.4 267.863 94.838 267.584 74.58 267.593L74.58 267.593L59.76 267.6L58.134 266.546C 55.293 264.703 55.2 264.339 55.2 255C 55.2 245.661 55.293 245.297 58.134 243.454L58.134 243.454L59.76 242.4L74.58 242.407C 89.175 242.413 89.424 242.427 91 243.308M153.866 243.454C 156.711 245.299 156.8 245.653 156.8 255.073C 156.8 263.998 156.705 264.474 154.621 266C 152.433 267.602 152.46 267.6 133.338 267.6C 108.483 267.6 109.8 268.305 109.8 255C 109.8 245.904 110.001 245.175 113 243.37L113 243.37L114.6 242.408L133.42 242.404L152.24 242.4L153.866 243.454zM121.871 283.037C 124.63 285.081 124.801 285.732 124.793 294.159C 124.782 307.725 127.932 306.577 90.4 306.689L90.4 306.689L60.6 306.778L58.8 305.889C 55.672 304.344 55.2 302.838 55.2 294.4C 55.2 286.174 55.682 284.544 58.6 282.904L58.6 282.904L60.2 282.005L90.471 282.102C 120.483 282.199 120.751 282.207 121.871 283.037M173.576 282.788C 176.547 284.304 176.8 285.203 176.798 294.247C 176.794 306.771 176.848 306.728 161.2 306.761C 145.998 306.793 145.872 306.701 145.674 295.403C 145.439 282.027 145.425 282.039 161.316 282.016C 171.204 282.001 172.151 282.061 173.576 282.788M174.009 322.2C 176.292 324.37 176.401 324.868 176.393 333.08C 176.386 341.594 176 342.972 173.206 344.458C 171.258 345.495 60.821 345.63 58.66 344.598C 55.73 343.199 55.4 342.021 55.4 332.959C 55.4 323.941 55.466 323.694 58.402 321.696L58.402 321.696L59.73 320.792L116.239 320.896L172.748 321L174.009 322.2" stroke="none" fill="#D3A363" fill-rule="nonzero" />
	<g>
	</g>
    <path d="M62.3 0.693C 61.035 0.774 60 0.988 60 1.168C 60 1.349 58.74 1.621 57.2 1.773C 55.66 1.924 54.4 2.218 54.4 2.424C 54.4 2.631 54.094 2.8 53.72 2.8C 52.646 2.8 48.4 4.144 48.4 4.484C 48.4 4.653 47.68 4.906 46.8 5.046C 45.92 5.187 45.2 5.459 45.2 5.651C 45.2 5.843 45.002 6 44.76 6C 43.539 6 33.953 10.876 33.667 11.643C 33.593 11.839 33.278 12 32.967 12C 32.655 12 32.395 12.135 32.389 12.3C 32.383 12.465 31.663 13.041 30.789 13.58C 29.915 14.12 29.2 14.705 29.2 14.88C 29.2 15.056 28.957 15.2 28.66 15.2C 27.773 15.2 18.657 23.802 16.4 26.769C 15.85 27.492 15.175 28.322 14.9 28.613C 14.625 28.905 14.4 29.327 14.4 29.552C 14.4 29.776 14.17 30.104 13.89 30.28C 13.182 30.723 9.598 36.086 9.599 36.7C 9.6 36.975 9.44 37.2 9.243 37.2C 9.047 37.2 8.774 37.65 8.636 38.2C 8.498 38.75 8.222 39.2 8.024 39.2C 7.826 39.2 7.545 39.74 7.4 40.4C 7.255 41.06 6.979 41.6 6.786 41.6C 6.594 41.6 6.318 42.23 6.174 43C 6.029 43.77 5.767 44.4 5.591 44.4C 5.414 44.4 5.149 45.12 5 46C 4.851 46.88 4.595 47.6 4.43 47.6C 4.265 47.6 3.808 48.635 3.415 49.9C 3.022 51.165 2.558 52.489 2.384 52.841C 2.209 53.194 1.937 54.364 1.778 55.441C 1.619 56.519 1.354 57.49 1.19 57.6C -0.662 58.839 -0.639 343.2 1.213 343.2C 1.375 343.2 1.631 344.187 1.782 345.394C 1.933 346.6 2.223 347.691 2.428 347.817C 2.633 347.944 2.8 348.414 2.8 348.863C 2.8 349.683 3.93 352.426 4.421 352.8C 4.566 352.91 4.809 353.675 4.96 354.5C 5.112 355.325 5.408 356 5.618 356C 5.828 356 6 356.31 6 356.689C 6 357.463 8.823 363.326 9.296 363.533C 9.463 363.607 9.6 363.819 9.6 364.005C 9.6 364.483 12.771 369.255 13.66 370.116C 14.067 370.509 14.4 371.011 14.4 371.231C 14.4 371.451 15.12 372.38 16 373.296C 16.88 374.212 17.6 375.09 17.6 375.247C 17.6 375.634 25.237 383.2 25.628 383.2C 25.799 383.2 26.478 383.74 27.138 384.4C 27.798 385.06 28.525 385.6 28.754 385.6C 28.982 385.6 29.491 385.933 29.884 386.34C 30.745 387.229 35.517 390.4 35.995 390.4C 36.181 390.4 36.393 390.537 36.467 390.704C 36.674 391.177 42.537 394 43.311 394C 43.69 394 44 394.166 44 394.368C 44 394.571 44.536 394.854 45.191 394.998C 45.846 395.142 47.241 395.695 48.291 396.228C 49.341 396.761 50.594 397.197 51.076 397.198C 51.558 397.199 52.054 397.363 52.177 397.563C 52.3 397.762 53.346 398.052 54.5 398.207C 55.655 398.363 56.78 398.63 57 398.802C 59.358 400.645 341.166 400.653 342.4 398.81C 342.51 398.646 343.5 398.379 344.6 398.218C 345.7 398.057 346.78 397.787 347 397.619C 347.22 397.45 347.984 397.202 348.698 397.067C 349.411 396.932 350.724 396.469 351.615 396.038C 352.506 395.608 353.767 395.139 354.417 394.996C 355.068 394.853 355.6 394.591 355.6 394.413C 355.6 394.235 356.23 393.971 357 393.826C 357.77 393.682 358.4 393.406 358.4 393.214C 358.4 393.021 358.94 392.745 359.6 392.6C 360.26 392.455 360.8 392.174 360.8 391.976C 360.8 391.778 361.25 391.502 361.8 391.364C 362.35 391.226 362.8 390.953 362.8 390.757C 362.8 390.56 363.027 390.4 363.304 390.4C 363.95 390.4 369.297 386.847 369.72 386.137C 369.896 385.841 370.224 385.6 370.448 385.6C 370.673 385.6 371.095 385.375 371.387 385.1C 371.678 384.825 372.508 384.15 373.231 383.6C 375.878 381.587 384.8 372.244 384.8 371.485C 384.8 371.269 385.25 370.675 385.8 370.165C 386.35 369.655 386.8 369.05 386.8 368.819C 386.8 368.589 386.977 368.4 387.192 368.4C 387.408 368.4 387.698 367.95 387.836 367.4C 387.974 366.85 388.206 366.4 388.352 366.4C 388.497 366.4 389.063 365.545 389.608 364.5C 390.154 363.455 390.703 362.51 390.83 362.4C 391.303 361.988 393.547 357.153 393.8 355.999C 393.945 355.34 394.206 354.8 394.381 354.8C 394.555 354.8 394.81 354.095 394.948 353.234C 395.086 352.372 395.334 351.607 395.499 351.534C 395.929 351.343 397.204 347.571 397.202 346.5C 397.201 346.005 397.366 345.6 397.568 345.6C 397.771 345.6 398.065 344.385 398.221 342.9C 398.378 341.415 398.707 340.072 398.953 339.915C 399.601 339.501 399.592 61.56 398.945 60.761C 398.694 60.453 398.361 59.075 398.205 57.7C 398.049 56.325 397.782 55.2 397.612 55.2C 397.442 55.2 397.185 54.307 397.04 53.216C 396.895 52.125 396.602 51.125 396.388 50.993C 396.175 50.861 396 50.313 396 49.776C 396 49.239 395.834 48.8 395.632 48.8C 395.429 48.8 395.136 48.221 394.981 47.513C 394.825 46.805 394.547 45.95 394.363 45.613C 393.691 44.383 392.4 41.233 392.4 40.822C 392.4 40.59 392.24 40.4 392.043 40.4C 391.847 40.4 391.574 39.95 391.436 39.4C 391.298 38.85 391.022 38.4 390.824 38.4C 390.626 38.4 390.345 37.86 390.2 37.2C 390.055 36.54 389.803 36 389.639 36C 389.476 36 388.937 35.19 388.443 34.2C 387.948 33.21 387.377 32.4 387.172 32.4C 386.967 32.4 386.8 32.196 386.8 31.946C 386.8 31.696 386.35 31.075 385.8 30.565C 385.25 30.055 384.8 29.456 384.8 29.233C 384.8 29.01 384.26 28.275 383.6 27.6C 382.94 26.925 382.4 26.228 382.4 26.051C 382.4 25.874 381.571 24.936 380.559 23.965C 379.546 22.994 378.241 21.679 377.659 21.043C 376.01 19.241 374.229 17.604 373.914 17.602C 373.756 17.601 373.075 17.06 372.4 16.4C 371.725 15.74 370.99 15.2 370.767 15.2C 370.544 15.2 369.945 14.75 369.435 14.2C 368.925 13.65 368.313 13.2 368.074 13.2C 367.835 13.2 367.496 12.973 367.32 12.696C 367.144 12.419 366.325 11.838 365.5 11.405C 364.675 10.972 364 10.493 364 10.341C 364 10.188 363.46 9.945 362.8 9.8C 362.14 9.655 361.6 9.374 361.6 9.176C 361.6 8.978 361.15 8.702 360.6 8.564C 360.05 8.426 359.6 8.161 359.6 7.975C 359.6 7.789 358.97 7.518 358.2 7.374C 357.43 7.229 356.8 6.951 356.8 6.755C 356.8 6.56 356.575 6.399 356.3 6.398C 356.025 6.396 355.317 6.143 354.727 5.835C 354.137 5.527 353.102 5.154 352.427 5.006C 351.752 4.858 351.2 4.571 351.2 4.368C 351.2 4.166 350.761 4 350.224 4C 349.687 4 349.139 3.825 349.007 3.612C 348.875 3.398 347.875 3.105 346.784 2.96C 345.693 2.815 344.8 2.558 344.8 2.388C 344.8 2.218 343.675 1.951 342.3 1.795C 340.925 1.639 339.547 1.306 339.239 1.055C 338.713 0.629 68.821 0.276 62.3 0.693M333.904 13.41C 361.933 17.796 382.325 38.029 386.598 65.696C 387.633 72.395 387.48 329.189 386.437 335.6C 385.51 341.305 384.681 344.523 383.191 348.2C 375.141 368.077 359.214 381.627 338.2 386.477L338.2 386.477L334.2 387.4L199.8 387.4C 71.975 387.4 65.245 387.365 62.231 386.682C 36.387 380.829 18.191 362.539 13.324 337.524C 12.202 331.756 12.196 67.983 13.318 63.031C 19.379 36.266 38.415 17.778 64.2 13.61C 70.499 12.592 327.458 12.401 333.904 13.41" stroke="none" fill="#24241C" fill-rule="nonzero" />
	<g>
	</g>
    <path d="M150.493 89.5L150.6 165.8L151.746 167.867C 153.157 170.414 155.798 173.139 157.173 173.466C 157.738 173.6 158.453 173.91 158.761 174.155C 159.166 174.475 171.54 174.6 202.961 174.6L202.961 174.6L246.6 174.6L248.503 173.696C 250.624 172.69 253.116 170.426 254.114 168.6C 256.059 165.04 256 167.57 256 87.768L256 87.768L256 13.2L203.193 13.2L150.386 13.2L150.493 89.5" stroke="none" fill="#FCDCA4" fill-rule="nonzero" />
	<g>
	</g>
    <path d="M58.794 243.541C 55.821 245.121 55.6 245.912 55.6 255C 55.6 267.75 54.732 267.2 74.835 267.2C 94.628 267.2 93.8 267.733 93.8 255C 93.8 245.938 93.736 245.695 90.804 243.7C 88.919 242.417 61.168 242.279 58.794 243.541M113.78 243.357C 110.401 244.845 109.902 246.556 110.073 256.078C 110.282 267.732 108.724 267 133.329 267L133.329 267L152.6 267L153.906 266.068C 156.397 264.292 156.6 263.458 156.6 255C 156.6 246.542 156.397 245.708 153.906 243.932L153.906 243.932L152.6 243L133.8 242.91C 118.781 242.837 114.755 242.927 113.78 243.357" stroke="none" fill="#05A4EB" fill-rule="nonzero" />
	<g>
	</g>
    <path d="M58.402 321.696C 55.466 323.694 55.4 323.941 55.4 332.959C 55.4 342.021 55.73 343.199 58.66 344.598C 60.821 345.63 171.258 345.495 173.206 344.458C 176 342.972 176.386 341.594 176.393 333.08C 176.401 324.868 176.292 324.37 174.009 322.2L174.009 322.2L172.748 321L116.239 320.896L59.73 320.792L58.402 321.696" stroke="none" fill="#E14489" fill-rule="nonzero" />
	<g>
	</g>
    <path d="M67.2 13.153C 65.884 13.385 136.293 13.322 145.8 13.082C 148.22 13.021 131.84 12.956 109.4 12.938C 86.96 12.92 67.97 13.017 67.2 13.153M259.8 13.079C 268.053 13.337 333.596 13.377 332.162 13.123C 331.303 12.971 313.86 12.873 293.4 12.906C 272.94 12.939 257.82 13.017 259.8 13.079M61.245 14.032C 58.681 14.536 58.655 14.899 61.207 14.568C 63.8 14.233 65.645 13.639 64 13.669C 63.45 13.679 62.21 13.843 61.245 14.032M335.4 13.949C 335.84 14.136 337.1 14.402 338.2 14.54C 339.431 14.694 339.892 14.66 339.4 14.451C 338.96 14.264 337.7 13.998 336.6 13.86C 335.369 13.706 334.908 13.74 335.4 13.949M54.662 15.847C 52.936 16.403 51.605 16.939 51.704 17.038C 51.871 17.204 56.367 15.916 58.2 15.177C 60.023 14.442 57.609 14.899 54.662 15.847M340.8 14.953C 340.8 15.037 342.357 15.591 344.26 16.185C 346.164 16.778 348.711 17.702 349.922 18.237C 351.132 18.772 352.189 19.144 352.27 19.064C 352.513 18.821 347.688 16.767 344.485 15.751C 341.525 14.811 340.8 14.654 340.8 14.953M46.399 19.308C 29.279 27.894 17.857 42.991 13.318 63.031C 12.196 67.983 12.202 331.756 13.324 337.524C 18.191 362.539 36.387 380.829 62.231 386.682C 65.245 387.365 71.975 387.4 199.8 387.4L199.8 387.4L334.2 387.4L338.2 386.477C 354.542 382.705 367.999 373.544 377.094 360C 379.319 356.687 381.766 352.033 381.45 351.716C 381.338 351.605 380.969 352.179 380.629 352.991C 375.394 365.521 362.224 373.346 343.258 375.196C 337.462 375.761 80.187 375.751 74.884 375.186C 47.259 372.238 26.971 351.438 24.805 323.842C 24.252 316.792 24.251 65.82 24.805 58.4C 25.948 43.061 31.925 29.07 39.615 23.726C 42.444 21.76 49.496 18 50.354 18C 50.573 18 50.864 17.82 51 17.6C 51.445 16.88 50.658 17.172 46.399 19.308M352.8 19.383C 352.8 19.47 353.835 20.127 355.1 20.842C 367.955 28.114 378.255 39.969 382.837 52.766C 383.342 54.178 383.821 55.137 383.9 54.899C 384.441 53.278 378.303 41.713 374.138 36.502C 368.607 29.584 352.8 16.902 352.8 19.383M384.229 56.8C 384.373 57.57 384.659 58.47 384.863 58.8C 385.11 59.199 385.146 58.93 384.971 58C 384.827 57.23 384.541 56.33 384.337 56C 384.09 55.601 384.054 55.87 384.229 56.8M385.443 61.6C 385.579 62.81 385.854 64.07 386.055 64.4C 386.286 64.78 386.322 64.266 386.154 63C 385.773 60.122 385.138 58.874 385.443 61.6M386.6 200.2C 386.6 274.074 386.725 333.815 386.877 332.958C 387.239 330.921 387.239 69.479 386.877 67.442C 386.725 66.585 386.6 126.326 386.6 200.2M385.877 336.481C 385.467 338.199 385.108 341.2 385.314 341.2C 385.579 341.2 386.494 335.96 386.268 335.735C 386.173 335.64 385.997 335.976 385.877 336.481M384.4 343.2C 384.151 344.124 384.037 344.971 384.147 345.081C 384.257 345.191 384.551 344.524 384.8 343.6C 385.049 342.676 385.163 341.829 385.053 341.719C 384.943 341.609 384.649 342.276 384.4 343.2M383.239 346.86C 382.709 348.38 382.688 348.682 383.148 348.18C 383.531 347.762 384.117 345.6 383.847 345.6C 383.754 345.6 383.481 346.167 383.239 346.86M382.209 349.343C 382.094 349.704 381.916 350.27 381.813 350.6C 381.709 350.93 381.714 351.2 381.822 351.2C 382.128 351.2 382.848 349.115 382.621 348.887C 382.51 348.776 382.325 348.981 382.209 349.343" stroke="none" fill="#AC6C34" fill-rule="nonzero" />
	<g>
	</g>
    <path d="M58.6 282.904C 55.682 284.544 55.2 286.174 55.2 294.4C 55.2 302.838 55.672 304.344 58.8 305.889L58.8 305.889L60.6 306.778L90.4 306.689C 124.093 306.588 121.955 306.8 123.893 303.378C 125.269 300.948 125.274 287.215 123.9 285.196C 121.692 281.952 124.505 282.212 90.471 282.102L90.471 282.102L60.2 282.005L58.6 282.904zM149.38 282.563C 145.995 284.037 145.504 285.737 145.674 295.403C 145.872 306.701 145.998 306.793 161.2 306.761C 176.848 306.728 176.794 306.771 176.798 294.247C 176.801 281.845 176.989 281.993 161.316 282.016C 153.314 282.027 150.291 282.166 149.38 282.563" stroke="none" fill="#FBF304" fill-rule="nonzero" />
	<g>
	</g>
    <path d="M176.5 13.1C 191.185 13.158 215.215 13.158 229.9 13.1C 244.585 13.042 232.57 12.994 203.2 12.994C 173.83 12.994 161.815 13.042 176.5 13.1M58.134 243.454C 55.293 245.297 55.2 245.661 55.2 255C 55.2 264.339 55.293 264.703 58.134 266.546L58.134 266.546L59.76 267.6L74.58 267.593C 94.838 267.584 94.4 267.863 94.4 255C 94.4 242.137 94.838 242.416 74.58 242.407L74.58 242.407L59.76 242.4L58.134 243.454zM113.078 243.325C 111.486 244.289 109.996 246.176 110.018 247.2C 110.025 247.53 110.271 247.26 110.565 246.6C 112.232 242.849 112.527 242.8 133.466 242.8C 154.845 242.8 154.686 242.77 156.22 247.074C 156.636 248.238 156.769 248.377 156.782 247.662C 156.809 246.254 155.686 244.634 153.866 243.454L153.866 243.454L152.24 242.4L133.42 242.402L114.6 242.404L113.078 243.325zM90.804 243.7C 93.736 245.695 93.8 245.938 93.8 255C 93.8 267.733 94.628 267.2 74.835 267.2C 54.732 267.2 55.6 267.75 55.6 255C 55.6 242.25 54.732 242.8 74.835 242.8C 89.366 242.8 89.492 242.807 90.804 243.7M109.764 255C 109.763 258.74 109.823 260.324 109.897 258.52C 109.971 256.715 109.972 253.655 109.898 251.72C 109.825 249.784 109.764 251.26 109.764 255M156.268 262.76C 156.111 263.545 155.403 264.668 154.571 265.453C 153.786 266.194 153.302 266.8 153.496 266.8C 154.759 266.8 157.132 263.197 156.708 261.923C 156.614 261.642 156.416 262.019 156.268 262.76M110.016 262.753C 109.984 263.853 111.715 266.042 113.224 266.812C 114.828 267.63 152.048 268.092 152.538 267.3C 152.64 267.135 144.506 267.053 134.462 267.119C 112.392 267.262 112.225 267.236 110.563 263.42C 110.27 262.749 110.024 262.449 110.016 262.753" stroke="none" fill="#878D74" fill-rule="nonzero" />
	<g>
	</g>
    <path d="M150.095 88.885C 149.988 174.125 149.738 166.763 152.868 170.557C 154.2 172.172 157.35 174.4 158.302 174.4C 159.227 174.4 158.481 173.716 157.298 173.48C 155.863 173.193 153.212 170.513 151.746 167.867L151.746 167.867L150.6 165.8L150.395 89.4L150.191 13L150.095 88.885zM256.099 87.668C 255.993 167.502 256.053 165.051 254.114 168.6C 253.178 170.312 250.557 172.775 248.962 173.442C 247.439 174.078 247.104 174.609 248.5 174.173C 250.13 173.665 252.807 171.475 253.999 169.676C 256.565 165.802 256.412 171.199 256.3 88.335L256.3 88.335L256.198 13L256.099 87.668zM159.915 174.872C 160.79 175.219 245.089 175.208 246.324 174.86C 246.832 174.717 227.444 174.6 203.239 174.6C 179.034 174.6 159.538 174.722 159.915 174.872" stroke="none" fill="#F8D49C" fill-rule="nonzero" />
</g>
</svg>